<svg width="1440" height="27" viewBox="0 0 1440 27" fill="none" xmlns="http://www.w3.org/2000/svg">
<g opacity="0.25">
<path d="M0 7.46338C34.2864 7.46338 34.2863 20.1048 68.5727 20.1048C102.859 20.1048 102.859 7.46338 137.132 7.46338C171.405 7.46338 171.418 20.1048 205.705 20.1048C239.991 20.1048 239.991 7.46338 274.277 7.46338C308.564 7.46338 308.564 20.1048 342.837 20.1048C377.11 20.1048 377.123 7.46338 411.409 7.46338C445.696 7.46338 445.696 20.1048 479.982 20.1048C514.268 20.1048 514.268 7.46338 548.555 7.46338C582.841 7.46338 582.828 20.1048 617.114 20.1048C651.4 20.1048 651.4 7.46338 685.687 7.46338C719.973 7.46338 719.973 20.1048 754.246 20.1048C788.519 20.1048 788.532 7.46338 822.819 7.46338C857.105 7.46338 857.105 20.1048 891.405 20.1048C925.705 20.1048 925.678 7.46338 959.964 7.46338C994.251 7.46338 994.264 20.1048 1028.55 20.1048C1062.84 20.1048 1062.84 7.46338 1097.11 7.46338C1131.38 7.46338 1131.4 20.1048 1165.68 20.1048C1199.97 20.1048 1199.97 7.46338 1234.27 7.46338C1268.57 7.46338 1268.55 20.1048 1302.84 20.1048C1337.13 20.1048 1337.13 7.46338 1371.41 7.46338C1405.7 7.46338 1405.71 20.1048 1440 20.1048" fill="black"/>
<path d="M0 7.46338C34.2864 7.46338 34.2863 20.1048 68.5727 20.1048C102.859 20.1048 102.859 7.46338 137.132 7.46338C171.405 7.46338 171.418 20.1048 205.705 20.1048C239.991 20.1048 239.991 7.46338 274.277 7.46338C308.564 7.46338 308.564 20.1048 342.837 20.1048C377.11 20.1048 377.123 7.46338 411.409 7.46338C445.696 7.46338 445.696 20.1048 479.982 20.1048C514.268 20.1048 514.268 7.46338 548.555 7.46338C582.841 7.46338 582.828 20.1048 617.114 20.1048C651.4 20.1048 651.4 7.46338 685.687 7.46338C719.973 7.46338 719.973 20.1048 754.246 20.1048C788.519 20.1048 788.532 7.46338 822.819 7.46338C857.105 7.46338 857.105 20.1048 891.405 20.1048C925.705 20.1048 925.678 7.46338 959.964 7.46338C994.251 7.46338 994.264 20.1048 1028.55 20.1048C1062.84 20.1048 1062.84 7.46338 1097.11 7.46338C1131.38 7.46338 1131.4 20.1048 1165.68 20.1048C1199.97 20.1048 1199.97 7.46338 1234.27 7.46338C1268.57 7.46338 1268.55 20.1048 1302.84 20.1048C1337.13 20.1048 1337.13 7.46338 1371.41 7.46338C1405.7 7.46338 1405.71 20.1048 1440 20.1048" stroke="black" stroke-width="13" stroke-miterlimit="10"/>
</g>
</svg>
